
<svg width="18px" height="22px" viewBox="0 0 18 22" version="1.1" xmlns="http://www.w3.org/2000/svg" xmlns:xlink="http://www.w3.org/1999/xlink">
    <!-- Generator: Sketch 46.2 (44496) - http://www.bohemiancoding.com/sketch -->
    <desc>Created with Sketch.</desc>
    <defs></defs>
    <g id="Page-1" stroke="none" stroke-width="1" fill="none" fill-rule="evenodd">
        <g id="Desktop-HD-Copy" transform="translate(-1360.000000, -15.000000)" fill-rule="nonzero" fill="#6E6E6E">
            <g id="Group" transform="translate(1360.000000, 15.000000)">
                <path d="M17.8666667,18.8718216 L16.3555556,6.33586338 C16.3111111,6.10958254 16.1333333,5.92855787 15.9111111,5.92855787 L12.6666667,5.92855787 L12.6666667,4.6613852 C12.6666667,2.03652751 11.2444444,0.271537002 9.11111111,0.271537002 C6.97777778,0.271537002 5.55555556,2.03652751 5.55555556,4.6613852 L5.55555556,5.92855787 L2.04444444,5.92855787 C1.82222222,5.92855787 1.64444444,6.10958254 1.6,6.33586338 L0.0888888889,18.8718216 C6.1202432e-13,19.505408 0.222222222,20.1842505 0.622222222,20.6368121 C1.02222222,21.13463 1.64444444,21.406167 2.26666667,21.406167 L15.6444444,21.406167 C16.2666667,21.406167 16.8888889,21.13463 17.2888889,20.6368121 C17.7333333,20.1842505 17.9555556,19.505408 17.8666667,18.8718216 Z M6.44444444,4.70664137 C6.44444444,3.07741935 7.15555556,1.22191651 9.11111111,1.22191651 C11.0666667,1.22191651 11.7777778,3.07741935 11.7777778,4.70664137 L11.7777778,5.97381404 L6.44444444,5.97381404 L6.44444444,4.70664137 Z M16.6666667,20.048482 C16.4,20.320019 16.0444444,20.5010436 15.6888889,20.5010436 L2.26666667,20.5010436 C1.86666667,20.5010436 1.51111111,20.320019 1.28888889,20.048482 C1.06666667,19.776945 0.933333333,19.3696395 0.977777778,18.962334 L2.44444444,6.87893738 L15.5111111,6.87893738 L16.9777778,19.0075901 C17.0222222,19.3696395 16.8888889,19.776945 16.6666667,20.048482 Z" id="Shape"></path>
            </g>
        </g>
    </g>
</svg>
