
<svg width="23px" height="21px" viewBox="0 0 23 21" version="1.1" xmlns="http://www.w3.org/2000/svg" xmlns:xlink="http://www.w3.org/1999/xlink">
    <!-- Generator: Sketch 46.2 (44496) - http://www.bohemiancoding.com/sketch -->
    <desc>Created with Sketch.</desc>
    <defs></defs>
    <g id="Page-1" stroke="none" stroke-width="1" fill="none" fill-rule="evenodd">
        <g id="Desktop-HD-Copy" transform="translate(-1319.000000, -16.000000)" fill-rule="nonzero" fill="#6E6E6E">
            <g id="Group" transform="translate(1319.000000, 16.000000)">
                <path d="M5.90010741,0 C4.38821429,0 2.87517087,0.610933614 1.72473758,1.84189334 C-0.57621749,4.30385848 -0.573607192,8.25914075 1.72473758,10.7231072 L11.1815355,20.8607854 C11.2648945,20.9497628 11.3796454,21 11.4995272,21 C11.6194091,21 11.73416,20.9497628 11.817519,20.8607854 C14.9722625,17.4852298 18.1195291,14.112964 21.2743169,10.7373627 C23.5752277,8.27540672 23.5752277,4.31815974 21.2743169,1.8561946 C18.9733618,-0.605770537 15.2245323,-0.605816228 12.9235772,1.8561946 L11.4995051,3.36970713 L10.0754773,1.84189334 C8.92499972,0.610933614 7.4119563,0 5.90010741,0 L5.90010741,0 Z M5.90010741,0.899563307 C7.17601195,0.899563307 8.45377467,1.41550545 9.43949377,2.47014382 L11.1815355,4.35489526 C11.2648945,4.44387271 11.3796454,4.49410989 11.4995272,4.49410989 C11.6194091,4.49410989 11.73416,4.44387271 11.817519,4.35489526 L13.5595607,2.48444509 C15.5309104,0.37507696 18.6669837,0.375122651 20.6383334,2.48444509 C22.6096389,4.59376752 22.6096389,7.99979895 20.6383334,10.1091122 C17.5899927,13.370806 14.5478458,16.6281591 11.4995051,19.8898528 L2.36072106,10.0948567 C0.390875589,7.98312175 0.38937135,4.57942056 2.36072106,2.47014382 C3.34635168,1.41550545 4.62415864,0.899517616 5.90010741,0.899563307 L5.90010741,0.899563307 Z" id="Shape"></path>
            </g>
        </g>
    </g>
</svg>
