
<svg width="175px" height="301px" viewBox="0 0 175 301" version="1.1" xmlns="http://www.w3.org/2000/svg" xmlns:xlink="http://www.w3.org/1999/xlink">
    <!-- Generator: Sketch 46.2 (44496) - http://www.bohemiancoding.com/sketch -->
    <desc>Created with Sketch.</desc>
    <defs></defs>
    <g id="Page-1" stroke="none" stroke-width="1" fill="none" fill-rule="evenodd" stroke-linecap="square">
        <g id="Group" transform="translate(3.000000, 3.000000)" stroke-width="4" stroke="#036564">
            <g id="Line-14">
                <path d="M92.5,218.5 L115.5,294.5"></path>
                <path d="M115.5,294.5 L116.5,153.5" id="Line-15"></path>
                <path d="M68.5,0.5 L168.5,12.5" id="Line-5"></path>
                <path d="M68.5,0.5 L41.9375,89.0625" id="Line-6"></path>
                <path d="M6.9,34.9333333 L41.1,89.0666667" id="Line-7"></path>
                <path d="M41.5,89.5 L168.5,12.5" id="Line-8"></path>
                <path d="M41.5,89.5 L0.5,187.5" id="Line-9"></path>
                <path d="M41.5,89.5 L116.5,153.5" id="Line-10"></path>
                <path d="M116.5,153.5 L0.5,187.5" id="Line-11"></path>
                <path d="M0.5,187.5 L92.5,218.5" id="Line-12"></path>
                <path d="M168.5,12.5 L92.5,218.5" id="Line-13"></path>
                <path d="M0.5,187.5 L115.5,294.5" id="Line-3"></path>
                <path d="M115.5,294.5 L168.5,12.5" id="Line-4"></path>
                <path d="M6.5,34.5 L0.5,187.5" id="Line-2"></path>
                <path d="M68.5,0.5 L6.88235294,34.1" id="Line"></path>
            </g>
        </g>
    </g>
</svg>
