
<svg width="23px" height="23px" viewBox="0 0 23 23" version="1.1" xmlns="http://www.w3.org/2000/svg" xmlns:xlink="http://www.w3.org/1999/xlink">
    <!-- Generator: Sketch 46.2 (44496) - http://www.bohemiancoding.com/sketch -->
    <desc>Created with Sketch.</desc>
    <defs></defs>
    <g id="Page-1" stroke="none" stroke-width="1" fill="none" fill-rule="evenodd">
        <g id="Desktop-HD-Copy" transform="translate(-1278.000000, -15.000000)" stroke="#6E6E6E" stroke-width="0.5" fill="#6E6E6E" fill-rule="nonzero">
            <path d="M1299.92987,36.5917477 L1293.82738,30.489249 C1293.80729,30.4691593 1293.78338,30.4552878 1293.75922,30.4440471 C1296.93818,27.0967132 1296.88867,21.7889552 1293.60544,18.5061955 C1291.98942,16.8899278 1289.84078,16 1287.55558,16 C1285.27013,16 1283.12173,16.890167 1281.50595,18.5061955 C1279.88969,20.1219848 1279,22.2701524 1279,24.5555998 C1279,26.8410473 1279.88993,28.989454 1281.50619,30.6054825 C1283.12197,32.2215111 1285.27037,33.111678 1287.55581,33.111678 C1289.7664,33.111678 1291.84759,32.2767579 1293.44401,30.7595039 C1293.45572,30.7838986 1293.46912,30.8073366 1293.48921,30.8274264 L1299.59169,36.9299251 C1299.63833,36.976562 1299.69955,37 1299.76078,37 C1299.822,37 1299.88323,36.976562 1299.92987,36.9299251 C1300.02338,36.8366513 1300.02338,36.6852607 1299.92987,36.5917477 Z M1287.55558,32.6333508 C1285.39809,32.6333508 1283.36975,31.7929299 1281.84413,30.2673052 C1280.31827,28.7416805 1279.47809,26.7133339 1279.47809,24.5555998 C1279.47809,22.3981049 1280.31827,20.3697583 1281.84413,18.8441337 C1283.36975,17.318509 1285.39785,16.4780881 1287.55558,16.4780881 C1289.71306,16.4780881 1291.74141,17.318509 1293.26726,18.8441337 C1296.41656,21.9934401 1296.41656,27.1177596 1293.26726,30.2673052 C1291.74141,31.7929299 1289.71306,32.6333508 1287.55558,32.6333508 Z" id="Shape"></path>
        </g>
    </g>
</svg>
